<svg version="1.2" xmlns="http://www.w3.org/2000/svg" viewBox="0 0 1270 144" width="1270" height="144"><style></style><path fill-rule="evenodd" d="m103.5 11v47.1q-6.2-6-12.8-8.9-6.5-3-13.7-3-11.2 0-18.1 7-6.8 6.9-6.8 18.3 0 11.3 6.5 18 6.5 6.7 17.5 6.7 6.6 0 13.4-2.8 6.9-2.9 15-9.1l-1.5 48q-7.5 3-15 4.6-7.4 1.5-14.9 1.5-9.3 0-18-2.1-8.6-2.1-15.5-5.9-16.9-9.8-25.6-24.6-8.7-14.9-8.7-34.3 0-14.2 4.9-26.4 5-12.2 14.4-21.5 9.5-9.4 21.9-14.2 12.6-4.9 27.1-4.9 7.7 0 15.2 1.7 7.6 1.5 14.7 4.8zm152 60.5q0 14.1-4.9 26.2-5 12-14.6 21.5-9.6 9.3-22.1 14.2-12.4 5-26.5 5-14.3 0-26.8-5-12.4-4.9-22.1-14.4-9.5-9.2-14.3-21.3-4.9-12-4.9-26.2 0-14.1 4.9-26.2 4.8-12.1 14.3-21.4 9.6-9.4 22-14.2 12.5-5 26.9-5 14.3 0 26.8 5 12.4 4.8 22.1 14.2 9.4 9.3 14.3 21.4 4.9 12.1 4.9 26.2zm-68.1 24.1q9.6 0 15.5-6.6 5.9-6.6 5.9-17.5 0-10.9-5.9-17.5-5.9-6.7-15.5-6.7-9.7 0-15.6 6.7-5.9 6.7-5.9 17.5 0 10.9 5.9 17.5 5.9 6.6 15.6 6.6zm86-18.9v-69.1h45.7v69.4q0 12.1 2.9 16.7 2.9 4.6 9.9 4.6 6.8 0 9.8-4.7 2.9-4.7 2.9-16.6v-69.4h45.8v69.1q0 13.6-1.8 22.4-1.7 8.7-5.7 14.7-7.6 11.9-20.8 18.2-13.3 6.4-30.2 6.4-17.1 0-30.3-6.4-13.3-6.3-20.9-18.2-3.9-5.9-5.6-14.6-1.7-8.7-1.7-22.5zm185 58.3h-44.2v-127.4h44.9l39.6 66.6q-0.8-4.4-1.1-9.8-0.3-5.4-0.3-14.1v-42.7h44.2v127.4h-45.3l-39.2-66.2q0.7 4.3 1.1 9.3 0.3 4.8 0.3 10.9zm168.7 0h-45.8v-85.7h-25.5v-41.7h96.8v41.7h-25.5zm85.2 0h-44.9v-127.4h57.6q25.1 0 38.3 11 13.3 11.1 13.3 31.9 0 13.6-6.7 22.4-6.7 8.7-18 10.2l34.1 51.9h-51.4l-22.3-42zm7.2-94.7h-7.2v24.9h7.2q6.5 0 10-3.1 3.5-3.2 3.5-9.1 0-6.1-3.5-9.4-3.5-3.3-10-3.3zm142.4 94.7h-46.2v-56.4l-42.6-71.1h52.2l10.7 24.7q1.5 3.3 3.5 9.6 0.2 0.6 0.3 1 0.9-3.1 3.3-9 0.4-1 0.6-1.5l10.5-24.8h51.9l-44.2 71.1zm63.3 0h-17.1v-127h20.9q11.6 0 18 1.6 6.4 1.7 11.2 5.5 5.6 4.5 8.6 12 3.2 7.5 3.2 16.6 0 17.4-10.2 26.5-10.1 9-29.6 9-2.1 0-3.1 0-1.1 0-1.9-0.1zm0-112.1v40.8h6.4q11.5 0 16.4-4.8 4.8-4.8 4.8-15.9 0-10.7-5.2-15.4-5.1-4.7-17.2-4.7zm60.2 112.1h-17.3l29.8-127.1h16.1l29.7 127.1h-17.3l-6.1-25h-29zm32-39.3l-11.4-55-11.5 55zm73.9-29h34.3q0.2 4.1 0.3 7.9 0.2 3.8 0.2 7.3 0 27.9-9.1 41.3-9.1 13.4-28 13.4-19.5 0-28.2-15.2-8.7-15.1-8.7-49.9 0-35.1 8.7-50.2 8.8-15 28.7-15 14.1 0 22.8 6.7 8.6 6.6 11.8 20.1l-15.2 7.3q-1.8-9.3-6.6-13.9-4.8-4.5-12.6-4.5-11.1 0-15.7 10.7-4.6 10.6-4.6 38.5 0 27.6 4.6 38.4 4.6 10.8 15.7 10.8 9.9 0 14.9-8.2 5-8.2 5-24.5 0-2.4 0-3.6 0-1.3-0.1-2.4h-18.2zm103 68.3h-50.9v-127.1h50.9v15.3h-33.7v37.8h30.8v15.1h-30.8v43h33.7zm14.8-4.8v-17.5q6.1 3.8 11.3 5.6 5.1 1.7 9.6 1.7 7.9 0 12.5-4.5 4.6-4.6 4.6-12.3 0-11.2-17.7-25.6-2.1-1.8-3.1-2.6-11.3-9.4-15.9-17.3-4.5-8-4.5-17.9 0-14.4 9.2-23.9 9.1-9.6 22.6-9.6 5.9 0 11.4 1.4 5.5 1.4 10.9 4.3v17.1q-5-3.5-9.8-5.1-4.7-1.8-9.3-1.8-8.1 0-13 4.8-4.8 4.7-4.8 12.6 0 11 18.7 26 1.7 1.4 2.7 2 10.9 8.8 15.4 16.9 4.5 8.1 4.5 18.6 0 14.6-9.3 24.1-9.3 9.4-23.9 9.4-5.3 0-10.7-1.6-5.5-1.5-11.4-4.8z"/></svg>
